<?xml version="1.0" standalone="no"?><!DOCTYPE svg PUBLIC "-//W3C//DTD SVG 1.1//EN" "http://www.w3.org/Graphics/SVG/1.1/DTD/svg11.dtd"><svg t="1502351791877" class="icon" style="" viewBox="0 0 1024 1024" version="1.1" xmlns="http://www.w3.org/2000/svg" p-id="1106" xmlns:xlink="http://www.w3.org/1999/xlink" width="200" height="200"><defs><style type="text/css"></style></defs><path d="M983.531956 312.857903A511.756369 511.756369 0 0 0 138.969483 161.431526a31.992896 31.992896 0 1 0 46.599653 43.840265C271.170129 114.311988 387.054398 64.213112 511.88668 64.213112c246.945168 0 447.900548 200.95538 447.900548 447.900548a445.581063 445.581063 0 0 1-89.780065 268.710335 416.127603 416.127603 0 0 0-56.557442-75.063333 31.992896 31.992896 0 1 0-46.429691 43.990233 351.741899 351.741899 0 0 1 58.117096 82.171754C744.305074 911.135061 633.699633 960.014207 511.88668 960.014207s-232.418394-48.879147-313.250445-128.061565C258.382968 715.018607 380.055952 640.085245 511.88668 640.085245a349.642365 349.642365 0 0 1 186.378617 53.418139 31.992896 31.992896 0 1 0 33.992452-54.217962 415.647709 415.647709 0 0 0-58.836936-30.613202q-14.99667-6.308599-30.243285-11.407467a226.659672 226.659672 0 0 0 26.874033-22.994894 223.670336 223.670336 0 1 0-316.319764 0 226.629679 226.629679 0 0 0 26.904026 22.994894 416.067616 416.067616 0 0 0-226.879623 183.559242A445.581063 445.581063 0 0 1 63.986133 512.11366a452.309569 452.309569 0 0 1 6.998446-79.332385A31.992896 31.992896 0 0 0 7.998564 421.533772 516.475321 516.475321 0 0 0 0.00034 512.11366a512.016311 512.016311 0 0 0 983.531616 199.255757 513.465989 513.465989 0 0 0 0-398.521512zM352.202137 416.134971c0-88.050449 71.634094-159.684543 159.684543-159.684544S671.571224 328.084522 671.571224 416.134971 599.937129 575.819514 511.88668 575.819514 352.202137 504.18542 352.202137 416.134971z" fill="" p-id="1107"></path><path d="M53.758404 365.226275a31.992896 31.992896 0 0 0 41.530778-17.996004c2.779383-6.998446 5.768719-13.996892 8.908022-20.915356a448.370443 448.370443 0 0 1 25.844262-48.479236 31.992896 31.992896 0 0 0-54.507897-33.512559A512.636174 512.636174 0 0 0 45.990128 299.790804c-3.579205 7.848257-6.998446 15.89647-10.187738 23.91469a31.992896 31.992896 0 0 0 17.956014 41.520781z" fill="" p-id="1108"></path></svg>