<?xml version="1.0" standalone="no"?><!DOCTYPE svg PUBLIC "-//W3C//DTD SVG 1.1//EN" "http://www.w3.org/Graphics/SVG/1.1/DTD/svg11.dtd"><svg t="1502351505411" class="icon" style="" viewBox="0 0 1024 1024" version="1.1" xmlns="http://www.w3.org/2000/svg" p-id="745" xmlns:xlink="http://www.w3.org/1999/xlink" width="200" height="200"><defs><style type="text/css"></style></defs><path d="M1006.82433 500.3l-448-480C546.72433 7.4 529.72433 0 512.02433 0s-34.7 7.4-46.8 20.3L263.42433 236.5c-5.8 5.8-9.4 13.8-9.4 22.7 0 17.7 14.3 32 32 32 9.6 0 18.2-4.2 24-10.9L512.02433 64l448 480H832.02433v334c0 45.3-36.7 82-82 82H640.02433V706.7c0.1-0.9 0.1-1.8 0.1-2.7 0-17.7-14.3-32-32-32h-192-0.1c-17.7 0-32 14.3-32 32v255.9H274.02433c-45.3 0-82-36.7-82-82V544H64.02433l88.4-94.7c6-5.8 9.7-13.9 9.7-22.9 0-17.7-14.3-32-32-32-8.6 0-16.5 3.4-22.2 9l-0.2 0.3c-0.6 0.6-1.2 1.2-1.8 1.9l-88.6 94.9c-17.5 18.5-22.2 45.6-12 69S38.52433 608 64.02433 608h64v270c0 19.7 3.9 38.8 11.5 56.8 7.4 17.4 17.9 33 31.3 46.4 13.4 13.4 29 23.9 46.4 31.3 18 7.6 37.2 11.5 56.8 11.5h110c17 0 33.3-6.7 45.3-18.7S448.02433 977 448.02433 960V736h128v224c0 35.3 28.7 64 64 64h110c19.7 0 38.8-3.9 56.8-11.5 17.4-7.4 33-17.9 46.4-31.3 13.4-13.4 23.9-29 31.3-46.4 7.6-18 11.5-37.2 11.5-56.8V608h64c25.5 0 48.5-15.1 58.7-38.5 10.2-23.4 5.5-50.5-11.9-69.2z" fill="" p-id="746"></path><path d="M193.92433 391.2c8.2 0 16.4-3.1 22.6-9.4l28.2-28.2c12.5-12.5 12.5-32.8 0-45.3s-32.8-12.5-45.3 0l-28.2 28.2c-12.5 12.5-12.5 32.8 0 45.3 6.3 6.3 14.5 9.4 22.7 9.4z" fill="" p-id="747"></path></svg>