<?xml version="1.0" standalone="no"?><!DOCTYPE svg PUBLIC "-//W3C//DTD SVG 1.1//EN" "http://www.w3.org/Graphics/SVG/1.1/DTD/svg11.dtd"><svg t="1502351773025" class="icon" style="" viewBox="0 0 1024 1024" version="1.1" xmlns="http://www.w3.org/2000/svg" p-id="866" xmlns:xlink="http://www.w3.org/1999/xlink" width="200" height="200"><defs><style type="text/css"></style></defs><path d="M416 447.9H32c-17.7 0-32-14.3-32-32V32C0 14.3 14.3 0 32 0h384c17.7 0 32 14.3 32 32v383.9c0 17.6-14.3 32-32 32z m-352-64h320V64H64v319.9zM992 447.9H608c-17.7 0-32-14.3-32-32V32c0-17.7 14.3-32 32-32h384c17.7 0 32 14.3 32 32v383.9c0 17.6-14.3 32-32 32z m-352-64h320V64H640v319.9zM240.4 1024c-8.2 0-16.4-3.1-22.6-9.4L9.4 806.2c-6-6-9.4-14.1-9.4-22.6S3.4 767 9.4 761l208.5-208.5c12.5-12.5 32.8-12.5 45.3 0l208.4 208.4c6 6 9.4 14.1 9.4 22.6s-3.4 16.6-9.4 22.6l-208.5 208.5c-6.3 6.3-14.5 9.4-22.7 9.4zM77.3 783.6l163.2 163.2 163.2-163.2-163.2-163.3L77.3 783.6zM992 1024H608c-17.7 0-32-14.3-32-32V608.1c0-17.7 14.3-32 32-32h384c17.7 0 32 14.3 32 32V992c0 17.7-14.3 32-32 32z m-352-64h320V640.1H640V960z" fill="" p-id="867"></path></svg>