<?xml version="1.0" standalone="no"?><!DOCTYPE svg PUBLIC "-//W3C//DTD SVG 1.1//EN" "http://www.w3.org/Graphics/SVG/1.1/DTD/svg11.dtd"><svg t="1502351780496" class="icon" style="" viewBox="0 0 1024 1024" version="1.1" xmlns="http://www.w3.org/2000/svg" p-id="986" xmlns:xlink="http://www.w3.org/1999/xlink" width="200" height="200"><defs><style type="text/css"></style></defs><path d="M32 516.2c17.7 0 32-14.3 32-32v-56c0-17.7-14.3-32-32-32s-32 14.3-32 32v56c0 17.7 14.3 32 32 32zM928 0H96C43.1 0 0 43.1 0 96v226.2c0 17.7 14.3 32 32 32s32-14.3 32-32V96c0-17.6 14.4-32 32-32h832c17.6 0 32 14.4 32 32v832c0 16.3-12.2 29.8-28 31.8L521.4 833.4c-6.1-1.9-12.7-1.9-18.8 0L92 959.8c-15.8-2-28-15.5-28-31.8V582.2c0-17.7-14.3-32-32-32s-32 14.3-32 32V928c0 52.9 43.1 96 96 96 3.2 0 6.4-0.5 9.4-1.4L512 897.5l406.6 125.1c3 0.9 6.2 1.4 9.4 1.4 52.9 0 96-43.1 96-96V96c0-52.9-43.1-96-96-96zM798.6 400.6c-3.8-11.6-13.8-20-25.8-21.8l-160.4-23.3-71.7-145.3c-5.4-10.9-16.5-17.8-28.7-17.8s-23.3 6.9-28.7 17.8l-71.7 145.3-160.4 23.3c-12.1 1.8-22.1 10.2-25.8 21.8-3.8 11.6-0.6 24.3 8.1 32.8l116.1 113.1-27.4 159.7c-2.1 12 2.9 24.1 12.7 31.3 9.9 7.2 22.9 8.1 33.7 2.4L512 664.6 655.5 740c4.7 2.5 9.8 3.7 14.9 3.7 6.6 0 13.2-2.1 18.8-6.1 9.9-7.2 14.8-19.3 12.7-31.3l-27.4-159.7 116.1-113.1c8.7-8.6 11.8-21.3 8-32.9zM617.8 512.4c-7.5 7.4-11 17.9-9.2 28.3l19.3 112.4-101-53.1c-4.7-2.5-9.8-3.7-14.9-3.7s-10.2 1.2-14.9 3.7l-101 53.1 19.3-112.4c1.8-10.4-1.7-21-9.2-28.3l-81.7-79.6 112.9-16.4c10.4-1.5 19.4-8.1 24.1-17.5L512 296.6l50.5 102.3c4.7 9.4 13.7 16 24.1 17.5l112.9 16.4-81.7 79.6z" fill="" p-id="987"></path></svg>